<svg width="32" height="14" viewBox="0 0 32 14" fill="none" xmlns="http://www.w3.org/2000/svg">
<path d="M0.994 10.3984V0.598437H7.224V1.80244H2.478V4.85444H6.804V6.03044H2.478V9.19444H7.224V10.3984H0.994ZM8.09605 10.3984V3.45444H9.41205L9.52405 4.67244C9.73871 4.2431 10.0514 3.9071 10.462 3.66444C10.882 3.41244 11.3627 3.28644 11.904 3.28644C12.744 3.28644 13.402 3.54777 13.878 4.07044C14.3634 4.5931 14.606 5.37244 14.606 6.40844V10.3984H13.136V6.56244C13.136 5.21844 12.5854 4.54644 11.484 4.54644C10.9334 4.54644 10.476 4.74244 10.112 5.13444C9.75738 5.52644 9.58005 6.08644 9.58005 6.81444V10.3984H8.09605ZM18.4259 10.3984C17.7445 10.3984 17.2032 10.2351 16.8019 9.90844C16.4005 9.57244 16.1999 8.97977 16.1999 8.13044V4.70044H15.0099V3.45444H16.1999L16.3819 1.69044H17.6839V3.45444H19.6439V4.70044H17.6839V8.13044C17.6839 8.5131 17.7632 8.7791 17.9219 8.92844C18.0899 9.06844 18.3745 9.13844 18.7759 9.13844H19.5739V10.3984H18.4259ZM20.334 10.3984V3.45444H21.664L21.79 4.77044C22.0327 4.3131 22.3687 3.95377 22.798 3.69244C23.2367 3.42177 23.764 3.28644 24.38 3.28644V4.84044H23.974C23.5633 4.84044 23.1947 4.91044 22.868 5.05044C22.5507 5.1811 22.294 5.40977 22.098 5.73644C21.9113 6.05377 21.818 6.4971 21.818 7.06644V10.3984H20.334ZM25.6244 13.4784L27.2904 9.82444H26.8844L24.1404 3.45444H25.7504L27.8784 8.59244L30.1044 3.45444H31.6724L27.1924 13.4784H25.6244Z" fill="#39E040"/>
</svg>
