<svg width="40" height="40" viewBox="0 0 40 40" fill="none" xmlns="http://www.w3.org/2000/svg">
<rect width="40" height="40" rx="20" fill="white"/>
<path d="M15.8327 12.5C13.5318 12.5 11.666 14.3467 11.666 16.625C11.666 18.4642 12.3952 22.8292 19.5727 27.2417C19.7013 27.3199 19.8489 27.3613 19.9993 27.3613C20.1498 27.3613 20.2974 27.3199 20.426 27.2417C27.6035 22.8292 28.3327 18.4642 28.3327 16.625C28.3327 14.3467 26.4668 12.5 24.166 12.5C21.8652 12.5 19.9993 15 19.9993 15C19.9993 15 18.1335 12.5 15.8327 12.5Z" stroke="#2C333A" stroke-width="2" stroke-linecap="round" stroke-linejoin="round"/>
<rect x="0.5" y="0.5" width="39" height="39" rx="19.5" stroke="#2C333A" stroke-opacity="0.5"/>
</svg>
