<svg width="62" height="25" viewBox="0 0 62 25" fill="none" xmlns="http://www.w3.org/2000/svg">
<rect x="0.75" y="1" width="60" height="23" rx="4.5" fill="#F2F6FF"/>
<path d="M12.226 17.5H13.276L17.084 7.476H16.048L13.388 14.434C13.234 14.812 12.982 15.512 12.772 16.24C12.548 15.54 12.352 14.994 12.142 14.448L9.468 7.476H8.39L12.226 17.5ZM20.0297 17.668C21.6257 17.668 22.6757 16.898 23.0397 15.47H22.1157C21.8637 16.366 21.1497 16.842 20.0437 16.842C18.5877 16.842 17.7197 15.89 17.6497 14.238H23.0397V13.762C23.0397 11.844 21.7937 10.542 19.9597 10.542C18.0277 10.542 16.7117 11.998 16.7117 14.112C16.7117 16.24 18.0417 17.668 20.0297 17.668ZM19.9597 11.368C21.2337 11.368 22.0737 12.236 22.0737 13.538H17.6777C17.8457 12.208 18.6857 11.368 19.9597 11.368ZM25.5502 17.5V13.958C25.5502 12.432 26.3342 11.424 27.7202 11.424C28.8402 11.424 29.5542 11.984 29.5542 13.566V17.5H30.5202V13.356C30.5202 11.648 29.7502 10.542 27.8882 10.542C26.9082 10.542 26.0122 11.032 25.5642 11.9L25.4242 10.724H24.5842V17.5H25.5502ZM35.1055 17.668C36.2395 17.668 37.1915 17.164 37.6675 16.114L37.7655 17.5H38.6055V7.294H37.6395V12.012C37.1635 11.032 36.2675 10.542 35.1475 10.542C33.1315 10.542 31.9695 12.082 31.9695 14.126C31.9695 16.156 33.1315 17.668 35.1055 17.668ZM35.2735 16.786C33.8035 16.786 32.9495 15.666 32.9495 14.098C32.9495 12.544 33.8035 11.41 35.2735 11.41C36.7575 11.41 37.6255 12.544 37.6255 14.098C37.6255 15.666 36.7575 16.786 35.2735 16.786ZM40.1453 14.112C40.1453 16.17 41.6013 17.668 43.5893 17.668C45.5773 17.668 47.0333 16.17 47.0333 14.112C47.0333 12.04 45.5773 10.542 43.5893 10.542C41.6013 10.542 40.1453 12.04 40.1453 14.112ZM41.1253 14.098C41.1253 12.53 42.1333 11.41 43.5893 11.41C45.0313 11.41 46.0533 12.53 46.0533 14.098C46.0533 15.694 45.0313 16.8 43.5893 16.8C42.1333 16.8 41.1253 15.694 41.1253 14.098ZM52.1203 10.64C51.8823 10.584 51.7003 10.57 51.4903 10.57C50.5383 10.57 49.8243 11.046 49.5583 11.774L49.4883 10.724H48.5783V17.5H49.5443V13.636C49.5443 12.348 50.3423 11.508 51.5883 11.508H52.1203V10.64Z" fill="#545454"/>
<rect x="0.75" y="1" width="60" height="23" rx="4.5" stroke="#2D4BF3"/>
</svg>
