<svg width="66" height="25" viewBox="0 0 66 25" fill="none" xmlns="http://www.w3.org/2000/svg">
<rect x="1" y="1" width="64" height="23" rx="4.5" fill="#F2F6FF"/>
<path d="M9.116 10.08C9.116 11.452 9.942 12.348 11.51 12.726L13.204 13.146C14.282 13.398 14.786 13.986 14.786 14.882C14.786 16.03 13.848 16.744 12.378 16.744C11.006 16.744 10.082 16.058 10.026 15.008H8.99C9.116 16.646 10.432 17.668 12.378 17.668C14.45 17.668 15.794 16.562 15.794 14.826C15.794 13.468 14.982 12.572 13.414 12.194L11.692 11.774C10.642 11.508 10.124 10.948 10.124 10.066C10.124 8.932 11.048 8.204 12.462 8.204C13.722 8.204 14.492 8.848 14.604 9.982H15.626C15.472 8.302 14.282 7.294 12.476 7.294C10.46 7.294 9.116 8.4 9.116 10.08ZM20.2387 17.668C21.8347 17.668 22.8847 16.898 23.2487 15.47H22.3247C22.0727 16.366 21.3587 16.842 20.2527 16.842C18.7967 16.842 17.9287 15.89 17.8587 14.238H23.2487V13.762C23.2487 11.844 22.0027 10.542 20.1687 10.542C18.2367 10.542 16.9207 11.998 16.9207 14.112C16.9207 16.24 18.2507 17.668 20.2387 17.668ZM20.1687 11.368C21.4427 11.368 22.2827 12.236 22.2827 13.538H17.8867C18.0547 12.208 18.8947 11.368 20.1687 11.368ZM24.3172 14.126C24.3172 16.254 25.6192 17.668 27.5372 17.668C29.0772 17.668 30.2812 16.758 30.6032 15.372H29.6232C29.3572 16.24 28.5452 16.8 27.5372 16.8C26.1652 16.8 25.2692 15.722 25.2692 14.112C25.2692 12.446 26.2352 11.396 27.6072 11.396C28.5452 11.396 29.3572 11.914 29.6092 12.852H30.5752C30.3092 11.452 29.1612 10.542 27.5932 10.542C25.6192 10.542 24.3172 11.998 24.3172 14.126ZM36.8266 10.724V14.322C36.8266 15.932 36.0566 16.8 34.7546 16.8C33.6766 16.8 32.9626 16.226 32.9626 14.616V10.71H31.9826V14.924C31.9826 16.576 32.8506 17.668 34.4466 17.668C35.5106 17.668 36.4486 17.136 36.8266 16.352L36.9526 17.5H37.7926V10.724H36.8266ZM43.3469 10.64C43.1089 10.584 42.9269 10.57 42.7169 10.57C41.7649 10.57 41.0509 11.046 40.7849 11.774L40.7149 10.724H39.8049V17.5H40.7709V13.636C40.7709 12.348 41.5689 11.508 42.8149 11.508H43.3469V10.64ZM45.107 8.862C45.499 8.862 45.835 8.54 45.835 8.148C45.835 7.756 45.499 7.42 45.107 7.42C44.715 7.42 44.393 7.756 44.393 8.148C44.393 8.54 44.715 8.862 45.107 8.862ZM44.631 17.5H45.597V10.724H44.631V17.5ZM49.1655 17.5V11.536H50.5235V10.724H49.1655V8.582H48.2135V10.724H46.8555V11.536H48.2135V17.5H49.1655ZM51.0954 20.454C51.4034 20.524 51.7114 20.552 52.1174 20.552C53.0834 20.552 53.7414 20.118 54.1334 19.054L57.2414 10.724H56.2474L54.1054 16.632L51.9214 10.724H50.8994L53.6434 17.906L53.3494 18.704C53.0134 19.614 52.4254 19.656 51.8374 19.656H51.0954V20.454Z" fill="#545454"/>
<rect x="1" y="1" width="64" height="23" rx="4.5" stroke="#2D4BF3"/>
</svg>
