<svg width="40" height="40" viewBox="0 0 40 40" fill="none" xmlns="http://www.w3.org/2000/svg">
<rect x="0.5" y="0.5" width="39" height="39" rx="19.5" fill="#00838F"/>
<path d="M24.5824 28.3329C24.1376 28.3381 23.6976 28.2402 23.2969 28.0471C22.8962 27.8539 22.5456 27.5706 22.2726 27.2194C21.9996 26.8682 21.8115 26.4585 21.7232 26.0226C21.6348 25.5866 21.6485 25.1361 21.7632 24.7063L16.5465 21.7246C16.1065 22.1278 15.5532 22.386 14.9615 22.4642C14.3698 22.5425 13.7684 22.4371 13.2386 22.1622C12.7089 21.8873 12.2764 21.4563 11.9997 20.9274C11.723 20.3986 11.6156 19.7975 11.6918 19.2056C11.7681 18.6137 12.0245 18.0595 12.4261 17.6181C12.8278 17.1766 13.3555 16.8693 13.9376 16.7377C14.5197 16.6061 15.1283 16.6566 15.6808 16.8823C16.2333 17.108 16.7031 17.498 17.0265 17.9996L21.7624 15.2921C21.7011 15.0606 21.6686 14.8224 21.6657 14.5829C21.6599 13.9065 21.8874 13.2487 22.3098 12.7203C22.7323 12.1919 23.3239 11.8252 23.985 11.682C24.6462 11.5387 25.3365 11.6277 25.9398 11.9338C26.543 12.24 27.0224 12.7447 27.2971 13.3629C27.5718 13.9811 27.6251 14.6751 27.448 15.328C27.2709 15.9809 26.8743 16.5528 26.3248 16.9475C25.7754 17.3422 25.1068 17.5355 24.4315 17.4949C23.7562 17.4543 23.1156 17.1823 22.6174 16.7246L17.4924 19.6538C17.4865 19.8704 17.4565 20.0846 17.4015 20.2938L22.6182 23.2746C22.9674 22.9542 23.3894 22.7238 23.8478 22.6034C24.3061 22.4831 24.787 22.4764 25.2485 22.5839C25.71 22.6915 26.1383 22.91 26.4963 23.2206C26.8542 23.5312 27.1309 23.9244 27.3025 24.3662C27.474 24.808 27.5352 25.2849 27.4806 25.7557C27.4261 26.2264 27.2575 26.6767 26.9895 27.0676C26.7215 27.4584 26.3622 27.7779 25.9427 27.9984C25.5232 28.219 25.0563 28.3338 24.5824 28.3329ZM24.5824 24.1663C24.2509 24.1663 23.9329 24.298 23.6985 24.5324C23.4641 24.7668 23.3324 25.0848 23.3324 25.4163C23.3324 25.7478 23.4641 26.0657 23.6985 26.3002C23.9329 26.5346 24.2509 26.6663 24.5824 26.6663C24.9139 26.6663 25.2318 26.5346 25.4663 26.3002C25.7007 26.0657 25.8324 25.7478 25.8324 25.4163C25.8324 25.0848 25.7007 24.7668 25.4663 24.5324C25.2318 24.298 24.9139 24.1663 24.5824 24.1663ZM14.5824 18.3329C14.2509 18.3329 13.9329 18.4646 13.6985 18.6991C13.4641 18.9335 13.3324 19.2514 13.3324 19.5829C13.3324 19.9145 13.4641 20.2324 13.6985 20.4668C13.9329 20.7012 14.2509 20.8329 14.5824 20.8329C14.9139 20.8329 15.2318 20.7012 15.4663 20.4668C15.7007 20.2324 15.8324 19.9145 15.8324 19.5829C15.8324 19.2514 15.7007 18.9335 15.4663 18.6991C15.2318 18.4646 14.9139 18.3329 14.5824 18.3329ZM24.5824 13.3329C24.4182 13.3329 24.2557 13.3653 24.104 13.4281C23.9524 13.4909 23.8146 13.583 23.6985 13.6991C23.5824 13.8151 23.4903 13.9529 23.4275 14.1046C23.3647 14.2562 23.3324 14.4188 23.3324 14.5829C23.3324 14.7471 23.3647 14.9096 23.4275 15.0613C23.4903 15.213 23.5824 15.3508 23.6985 15.4668C23.8146 15.5829 23.9524 15.675 24.104 15.7378C24.2557 15.8006 24.4182 15.8329 24.5824 15.8329C24.9139 15.8329 25.2318 15.7012 25.4663 15.4668C25.7007 15.2324 25.8324 14.9145 25.8324 14.5829C25.8324 14.2514 25.7007 13.9335 25.4663 13.6991C25.2318 13.4646 24.9139 13.3329 24.5824 13.3329Z" fill="white"/>
<rect x="0.5" y="0.5" width="39" height="39" rx="19.5" stroke="#00838F"/>
</svg>
