<svg width="16" height="21" viewBox="0 0 16 21" fill="none" xmlns="http://www.w3.org/2000/svg">
<path d="M15.5 18.1016V6.22656L9.875 0.601562H3C2.33696 0.601563 1.70107 0.864955 1.23223 1.3338C0.763392 1.80264 0.5 2.43852 0.5 3.10156V18.1016C0.5 18.7646 0.763392 19.4005 1.23223 19.8693C1.70107 20.3382 2.33696 20.6016 3 20.6016H13C13.663 20.6016 14.2989 20.3382 14.7678 19.8693C15.2366 19.4005 15.5 18.7646 15.5 18.1016ZM9.875 4.35156C9.875 4.84884 10.0725 5.32576 10.4242 5.67739C10.7758 6.02902 11.2527 6.22656 11.75 6.22656H14.25V18.1016C14.25 18.4331 14.1183 18.751 13.8839 18.9854C13.6495 19.2199 13.3315 19.3516 13 19.3516H3C2.66848 19.3516 2.35054 19.2199 2.11612 18.9854C1.8817 18.751 1.75 18.4331 1.75 18.1016V3.10156C1.75 2.77004 1.8817 2.4521 2.11612 2.21768C2.35054 1.98326 2.66848 1.85156 3 1.85156H9.875V4.35156Z" fill="#2D4BF3"/>
<path d="M3.75388 18.2121C3.51024 18.1146 3.31395 17.9264 3.20637 17.6871C2.96262 17.2021 3.04387 16.7171 3.30637 16.3096C3.55387 15.9258 3.96388 15.5996 4.42763 15.3258C5.01505 14.9927 5.63599 14.7224 6.28012 14.5196C6.78036 13.6203 7.22373 12.6906 7.60762 11.7358C7.3781 11.2143 7.19814 10.6723 7.07012 10.1171C6.96262 9.61709 6.92137 9.12209 7.01262 8.69709C7.10637 8.25459 7.35512 7.85709 7.82512 7.66834C8.06512 7.57209 8.32512 7.51834 8.57762 7.57209C8.70464 7.59913 8.82404 7.6541 8.92717 7.73301C9.0303 7.81193 9.11457 7.91281 9.17387 8.02834C9.28387 8.23334 9.32387 8.47334 9.33262 8.70084C9.34137 8.93584 9.31762 9.19584 9.27387 9.46834C9.16887 10.1058 8.93637 10.8858 8.62387 11.7108C8.96874 12.4484 9.3787 13.1537 9.84887 13.8183C10.4053 13.7744 10.9648 13.7954 11.5164 13.8808C11.9714 13.9633 12.4339 14.1246 12.7164 14.4621C12.8664 14.6421 12.9576 14.8621 12.9664 15.1096C12.9751 15.3496 12.9076 15.5871 12.7939 15.8133C12.6953 16.023 12.5426 16.2025 12.3514 16.3333C12.1624 16.4566 11.9392 16.517 11.7139 16.5058C11.3001 16.4883 10.8964 16.2608 10.5476 15.9846C10.1236 15.634 9.74143 15.2355 9.40887 14.7971C8.56357 14.893 7.72829 15.0628 6.91262 15.3046C6.5391 15.967 6.11271 16.5982 5.63762 17.1921C5.27262 17.6296 4.87637 18.0121 4.47888 18.1758C4.25049 18.2792 3.99143 18.2921 3.75388 18.2121ZM5.47762 15.8358C5.27012 15.9308 5.07762 16.0308 4.90387 16.1333C4.49387 16.3758 4.22762 16.6121 4.09512 16.8171C3.97762 16.9983 3.97512 17.1296 4.04512 17.2683C4.05762 17.2958 4.07012 17.3133 4.07762 17.3233C4.09254 17.3194 4.10716 17.3143 4.12137 17.3083C4.29262 17.2383 4.56512 17.0146 4.91513 16.5933C5.11418 16.3496 5.30188 16.0969 5.47762 15.8358ZM7.52763 14.1733C7.94503 14.0759 8.36621 13.9954 8.79012 13.9321C8.56252 13.5838 8.34983 13.226 8.15262 12.8596C7.95656 13.3028 7.74815 13.7405 7.52763 14.1721V14.1733ZM10.5851 14.7358C10.7726 14.9396 10.9551 15.1108 11.1289 15.2483C11.4289 15.4858 11.6376 15.5646 11.7514 15.5683C11.7818 15.5723 11.8127 15.5657 11.8389 15.5496C11.8909 15.5085 11.9314 15.4547 11.9564 15.3933C12.0008 15.3172 12.0261 15.2314 12.0301 15.1433C12.0294 15.114 12.0178 15.0859 11.9976 15.0646C11.9326 14.9871 11.7476 14.8746 11.3501 14.8033C11.0973 14.7611 10.8415 14.7389 10.5851 14.7371V14.7358ZM8.09762 10.3533C8.20283 10.014 8.28633 9.66829 8.34762 9.31834C8.38637 9.08334 8.40137 8.88959 8.39512 8.73709C8.39547 8.65295 8.38196 8.56933 8.35512 8.48959C8.29259 8.49733 8.23153 8.51418 8.17387 8.53959C8.06512 8.58334 7.97637 8.67209 7.92887 8.89334C7.87887 9.13334 7.89137 9.47959 7.98637 9.92084C8.01637 10.0596 8.05387 10.2046 8.09888 10.3533H8.09762Z" fill="#2D4BF3"/>
</svg>
