<svg width="81" height="25" viewBox="0 0 81 25" fill="none" xmlns="http://www.w3.org/2000/svg">
<rect x="1.25" y="1" width="79" height="23" rx="4.5" fill="#F2F6FF"/>
<path d="M10.976 17.5V13.342H13.902L15.946 17.5H17.066L14.924 13.174C16.212 12.824 16.968 11.816 16.968 10.374C16.968 8.596 15.736 7.476 13.706 7.476H9.968V17.5H10.976ZM10.976 8.386H13.706C15.078 8.386 15.932 9.1 15.932 10.402C15.932 11.676 15.12 12.432 13.734 12.432H10.976V8.386ZM21.0629 17.668C22.6589 17.668 23.7089 16.898 24.0729 15.47H23.1489C22.8969 16.366 22.1829 16.842 21.0769 16.842C19.6209 16.842 18.7529 15.89 18.6829 14.238H24.0729V13.762C24.0729 11.844 22.8269 10.542 20.9929 10.542C19.0609 10.542 17.7449 11.998 17.7449 14.112C17.7449 16.24 19.0749 17.668 21.0629 17.668ZM20.9929 11.368C22.2669 11.368 23.1069 12.236 23.1069 13.538H18.7109C18.8789 12.208 19.7189 11.368 20.9929 11.368ZM25.0434 15.596C25.0434 16.856 25.9954 17.668 27.5214 17.668C29.0614 17.668 30.0974 16.87 30.0974 15.652C30.0974 14.672 29.5654 14.126 28.3894 13.832L27.2274 13.538C26.4854 13.356 26.1214 12.992 26.1214 12.474C26.1214 11.746 26.6534 11.34 27.6054 11.34C28.5154 11.34 29.0614 11.802 29.0894 12.586H30.0274C29.9854 11.326 29.0614 10.542 27.6334 10.542C26.1774 10.542 25.1834 11.298 25.1834 12.488C25.1834 13.412 25.7574 14.028 26.9334 14.322L28.0954 14.616C28.8934 14.812 29.1734 15.134 29.1734 15.694C29.1734 16.422 28.5574 16.87 27.5074 16.87C26.5554 16.87 25.9674 16.38 25.9674 15.596H25.0434ZM32.1637 8.862C32.5557 8.862 32.8917 8.54 32.8917 8.148C32.8917 7.756 32.5557 7.42 32.1637 7.42C31.7717 7.42 31.4497 7.756 31.4497 8.148C31.4497 8.54 31.7717 8.862 32.1637 8.862ZM31.6877 17.5H32.6537V10.724H31.6877V17.5ZM37.3282 17.668C38.4622 17.668 39.4142 17.164 39.8902 16.114L39.9882 17.5H40.8282V7.294H39.8622V12.012C39.3862 11.032 38.4902 10.542 37.3702 10.542C35.3542 10.542 34.1922 12.082 34.1922 14.126C34.1922 16.156 35.3542 17.668 37.3282 17.668ZM37.4962 16.786C36.0262 16.786 35.1722 15.666 35.1722 14.098C35.1722 12.544 36.0262 11.41 37.4962 11.41C38.9802 11.41 39.8482 12.544 39.8482 14.098C39.8482 15.666 38.9802 16.786 37.4962 16.786ZM45.6859 17.668C47.2819 17.668 48.3319 16.898 48.6959 15.47H47.7719C47.5199 16.366 46.8059 16.842 45.6999 16.842C44.2439 16.842 43.3759 15.89 43.3059 14.238H48.6959V13.762C48.6959 11.844 47.4499 10.542 45.6159 10.542C43.6839 10.542 42.3679 11.998 42.3679 14.112C42.3679 16.24 43.6979 17.668 45.6859 17.668ZM45.6159 11.368C46.8899 11.368 47.7299 12.236 47.7299 13.538H43.3339C43.5019 12.208 44.3419 11.368 45.6159 11.368ZM51.2064 17.5V13.958C51.2064 12.432 51.9904 11.424 53.3764 11.424C54.4964 11.424 55.2104 11.984 55.2104 13.566V17.5H56.1764V13.356C56.1764 11.648 55.4064 10.542 53.5444 10.542C52.5644 10.542 51.6684 11.032 51.2204 11.9L51.0804 10.724H50.2404V17.5H51.2064ZM57.6258 14.126C57.6258 16.254 58.9278 17.668 60.8458 17.668C62.3858 17.668 63.5898 16.758 63.9118 15.372H62.9318C62.6658 16.24 61.8538 16.8 60.8458 16.8C59.4738 16.8 58.5778 15.722 58.5778 14.112C58.5778 12.446 59.5438 11.396 60.9158 11.396C61.8538 11.396 62.6658 11.914 62.9178 12.852H63.8838C63.6178 11.452 62.4698 10.542 60.9018 10.542C58.9278 10.542 57.6258 11.998 57.6258 14.126ZM68.2172 17.668C69.8132 17.668 70.8632 16.898 71.2272 15.47H70.3032C70.0512 16.366 69.3372 16.842 68.2312 16.842C66.7752 16.842 65.9072 15.89 65.8372 14.238H71.2272V13.762C71.2272 11.844 69.9812 10.542 68.1472 10.542C66.2152 10.542 64.8992 11.998 64.8992 14.112C64.8992 16.24 66.2292 17.668 68.2172 17.668ZM68.1472 11.368C69.4212 11.368 70.2612 12.236 70.2612 13.538H65.8652C66.0332 12.208 66.8732 11.368 68.1472 11.368Z" fill="#545454"/>
<rect x="1.25" y="1" width="79" height="23" rx="4.5" stroke="#2D4BF3"/>
</svg>
